<svg xmlns="http://www.w3.org/2000/svg" viewBox="0 0 100 100" preserveAspectRatio="xMidYMid" width="84" height="84" style="shape-rendering: auto; display: block; background: rgb(255, 255, 255);" xmlns:xlink="http://www.w3.org/1999/xlink"><g><g transform="rotate(0 50 50)">
  <rect fill="#000000" height="12" width="1" ry="0" rx="0" y="28" x="49.5">
    <animate repeatCount="indefinite" begin="-0.4807692307692307s" dur="0.5208333333333333s" keyTimes="0;1" values="1;0" attributeName="opacity"></animate>
  </rect>
</g><g transform="rotate(27.692307692307693 50 50)">
  <rect fill="#000000" height="12" width="1" ry="0" rx="0" y="28" x="49.5">
    <animate repeatCount="indefinite" begin="-0.4407051282051282s" dur="0.5208333333333333s" keyTimes="0;1" values="1;0" attributeName="opacity"></animate>
  </rect>
</g><g transform="rotate(55.38461538461539 50 50)">
  <rect fill="#000000" height="12" width="1" ry="0" rx="0" y="28" x="49.5">
    <animate repeatCount="indefinite" begin="-0.4006410256410256s" dur="0.5208333333333333s" keyTimes="0;1" values="1;0" attributeName="opacity"></animate>
  </rect>
</g><g transform="rotate(83.07692307692308 50 50)">
  <rect fill="#000000" height="12" width="1" ry="0" rx="0" y="28" x="49.5">
    <animate repeatCount="indefinite" begin="-0.3605769230769231s" dur="0.5208333333333333s" keyTimes="0;1" values="1;0" attributeName="opacity"></animate>
  </rect>
</g><g transform="rotate(110.76923076923077 50 50)">
  <rect fill="#000000" height="12" width="1" ry="0" rx="0" y="28" x="49.5">
    <animate repeatCount="indefinite" begin="-0.3205128205128205s" dur="0.5208333333333333s" keyTimes="0;1" values="1;0" attributeName="opacity"></animate>
  </rect>
</g><g transform="rotate(138.46153846153845 50 50)">
  <rect fill="#000000" height="12" width="1" ry="0" rx="0" y="28" x="49.5">
    <animate repeatCount="indefinite" begin="-0.28044871794871795s" dur="0.5208333333333333s" keyTimes="0;1" values="1;0" attributeName="opacity"></animate>
  </rect>
</g><g transform="rotate(166.15384615384616 50 50)">
  <rect fill="#000000" height="12" width="1" ry="0" rx="0" y="28" x="49.5">
    <animate repeatCount="indefinite" begin="-0.24038461538461536s" dur="0.5208333333333333s" keyTimes="0;1" values="1;0" attributeName="opacity"></animate>
  </rect>
</g><g transform="rotate(193.84615384615384 50 50)">
  <rect fill="#000000" height="12" width="1" ry="0" rx="0" y="28" x="49.5">
    <animate repeatCount="indefinite" begin="-0.2003205128205128s" dur="0.5208333333333333s" keyTimes="0;1" values="1;0" attributeName="opacity"></animate>
  </rect>
</g><g transform="rotate(221.53846153846155 50 50)">
  <rect fill="#000000" height="12" width="1" ry="0" rx="0" y="28" x="49.5">
    <animate repeatCount="indefinite" begin="-0.16025641025641024s" dur="0.5208333333333333s" keyTimes="0;1" values="1;0" attributeName="opacity"></animate>
  </rect>
</g><g transform="rotate(249.23076923076923 50 50)">
  <rect fill="#000000" height="12" width="1" ry="0" rx="0" y="28" x="49.5">
    <animate repeatCount="indefinite" begin="-0.12019230769230768s" dur="0.5208333333333333s" keyTimes="0;1" values="1;0" attributeName="opacity"></animate>
  </rect>
</g><g transform="rotate(276.9230769230769 50 50)">
  <rect fill="#000000" height="12" width="1" ry="0" rx="0" y="28" x="49.5">
    <animate repeatCount="indefinite" begin="-0.08012820512820512s" dur="0.5208333333333333s" keyTimes="0;1" values="1;0" attributeName="opacity"></animate>
  </rect>
</g><g transform="rotate(304.61538461538464 50 50)">
  <rect fill="#000000" height="12" width="1" ry="0" rx="0" y="28" x="49.5">
    <animate repeatCount="indefinite" begin="-0.04006410256410256s" dur="0.5208333333333333s" keyTimes="0;1" values="1;0" attributeName="opacity"></animate>
  </rect>
</g><g transform="rotate(332.3076923076923 50 50)">
  <rect fill="#000000" height="12" width="1" ry="0" rx="0" y="28" x="49.5">
    <animate repeatCount="indefinite" begin="0s" dur="0.5208333333333333s" keyTimes="0;1" values="1;0" attributeName="opacity"></animate>
  </rect>
</g><g></g></g><!-- [ldio] generated by https://loading.io --></svg>